<svg xmlns="http://www.w3.org/2000/svg" viewBox="0 0 100 125" x="0px" y="0px"><path d="M30.3,52.79a5,5,0,1,0-4.21,7.58A5,5,0,0,0,30.3,52.79Zm-.61,2.62a3.57,3.57,0,0,1-.47,1.77l-1.3-1A1.91,1.91,0,0,0,28,55.08l1.42-.94A3.58,3.58,0,0,1,29.69,55.41Zm-3.09-.34a.61.61,0,0,1-1,.68A.61.61,0,0,1,26.6,55.07ZM28.74,53l-1.38.92a1.92,1.92,0,0,0-1.15-.46l-.45-1.61A3.57,3.57,0,0,1,28.74,53Zm-4.29-.77.45,1.62a2,2,0,0,0-.69,1l-1.66-.06A3.63,3.63,0,0,1,24.45,52.21Zm-1.89,3.9,1.7.06a2,2,0,0,0,.59.77l-.58,1.57A3.6,3.6,0,0,1,22.56,56.11Zm3,2.86.59-1.59a2,2,0,0,0,.87-.22l1.33,1.05A3.55,3.55,0,0,1,25.55,59Z"/><path d="M79.14,52.55a5,5,0,1,0-2.78,7.65A5,5,0,0,0,79.14,52.55ZM78,53.33A3.61,3.61,0,0,1,78.67,55L77,55a1.92,1.92,0,0,0-.52-.93l.62-1.59A3.57,3.57,0,0,1,78,53.33Zm-6.21,3.59a3.59,3.59,0,0,1,.08-3.18l1.31,1.07a2,2,0,0,0,0,1.19Zm2.69-1.73a.62.62,0,0,1,1.15.44A.62.62,0,0,1,74.51,55.19Zm.57-3.38a2.85,2.85,0,0,1,.77.09l-.6,1.54a1.94,1.94,0,0,0-1.2.3l-1.3-1.06A3.6,3.6,0,0,1,75.08,51.81ZM72.61,58,74,57.08a1.89,1.89,0,0,0,.92.3L75.39,59A3.57,3.57,0,0,1,72.61,58Zm4.56.33a3.24,3.24,0,0,1-.47.28L76.27,57a2.14,2.14,0,0,0,.58-.68l1.7.09A3.53,3.53,0,0,1,77.17,58.35Z"/><path d="M35.39,52.83a.68.68,0,0,0,.65.49h2.08a.68.68,0,0,0,0-1.36H36.55l-1-3.24h1.17a.68.68,0,0,0,0-1.36H34.68a.69.69,0,0,0-.55.27.7.7,0,0,0-.1.6Z"/><path d="M91.58,52.61c.18-2.34-3.87-5.4-10.79-7.39-6.17-1.65-17-1.82-18.56-1.84-4.53-2.63-8.44-5.64-14.37-6.13a81.52,81.52,0,0,0-19.85,2,98.77,98.77,0,0,0-9.41,3.16c-3.4,1.22-5.42,2.29-7.51,1.53a1.57,1.57,0,0,0-2,.45c-.89,1.41-.82,6.37-.48,7.73C9,54,9.18,56.9,11.86,57c1.76,0,5.62.22,7,.31A7.45,7.45,0,0,0,33,58.18c12.14-.36,24-.37,35.2,0A7.45,7.45,0,0,0,82,58.05c.72,0,2.83,0,4.68,0,1.15,0,2.19,0,2.73,0a1.15,1.15,0,0,0,1-.54c.39-.68-.14-1.4-.43-2C91.61,55.26,91.78,53.85,91.58,52.61Zm-1.74-1.14c-2.28.41-4.06.42-5.24-.53a1.25,1.25,0,0,1-.37-1.21,9,9,0,0,1,3.7.12A10.85,10.85,0,0,1,89.84,51.47ZM60.61,44.08l-.1-.14.14.09A.1.1,0,0,0,60.61,44.08Zm-4.23-.49c2,.35,3,1.06,3.16,1.33,0,.08-.22.24-.67.36a6.86,6.86,0,0,1-2.27.07A2.32,2.32,0,0,1,56.38,43.59Zm-8.62-5c4.26.33,7.62,2.22,10.82,4.17a11.82,11.82,0,0,0-2.43-.61.69.69,0,0,0-.62.24A2.66,2.66,0,0,0,55,44.66H42.25c-.47-2.1-.92-3.79-1.56-5.91A51.92,51.92,0,0,1,47.76,38.61ZM38,39l1.32-.13c.65,2.11,1.1,3.78,1.55,5.8H39.43C39,42.62,38.51,40.68,38,39ZM10.05,52.47a11.9,11.9,0,0,1-.34-3h1.47v2.19a.78.78,0,0,1-.77.78Zm16,9a6.07,6.07,0,1,1,6.07-6.07A6.07,6.07,0,0,1,26.09,61.48Zm0-13.5a7.43,7.43,0,0,0-7.41,7.93c-1.63-.09-5.12-.29-6.82-.29-.84,0-1.24-.72-1.52-1.79a2.15,2.15,0,0,0,2.2-2.14V48.82a.68.68,0,0,0-.68-.68H9.73a8.68,8.68,0,0,1,.47-3,.42.42,0,0,1,.33,0c2.56,1,4.72-.1,8.55-1.5,4.19-1.6,9.54-3.54,14.79-4.18l.59,2.59a.51.51,0,0,1-.5.63H24a.68.68,0,0,0,0,1.36H34a1.89,1.89,0,0,0,1.83-2.29l-.56-2.47,1.37-.17a111.19,111.19,0,0,1,3.45,17.52l-6.66.15A7.45,7.45,0,0,0,26.09,48Zm15.32,8.64c-.41-3.19-1-7-1.7-10.6H55.4c.11.3.29.59.63.63a11.24,11.24,0,0,0,1.58.12c1.15,0,2.74-.34,3.13-1.2.69,3.47.21,7.21-.45,11C54.14,56.52,47.83,56.52,41.41,56.62Zm33.68,4.86a6.07,6.07,0,1,1,6.07-6.07A6.07,6.07,0,0,1,75.09,61.48ZM90.18,54c-.18.18-.53.12-.74.2a.51.51,0,0,0-.17,0H85.19a.68.68,0,0,0,0,1.36h3.44a5.85,5.85,0,0,0,.49,1.19c-1.49,0-5.24,0-6.71,0a7.43,7.43,0,1,0-14.62.11q-3-.09-6.12-.15c.69-4.12,1.17-8.12.28-11.92.25,0,12,.08,18.49,1.8a27.25,27.25,0,0,1,4.68,1.71,9.27,9.27,0,0,0-1.66.27A.72.72,0,0,0,83,49a2.77,2.77,0,0,0,.78,3c1.8,1.45,4.32,1.19,6.48.8C90.28,53.22,90.34,53.79,90.18,54Z"/><text x="0" y="115" fill="#000000" font-size="5px" font-weight="bold" font-family="'Helvetica Neue', Helvetica, Arial-Unicode, Arial, Sans-serif">Created by Fran Couto</text><text x="0" y="120" fill="#000000" font-size="5px" font-weight="bold" font-family="'Helvetica Neue', Helvetica, Arial-Unicode, Arial, Sans-serif">from the Noun Project</text></svg>