<svg xmlns="http://www.w3.org/2000/svg" xmlns:xlink="http://www.w3.org/1999/xlink" xmlns:a="http://ns.adobe.com/AdobeSVGViewerExtensions/3.0/" version="1.1" x="0px" y="0px" viewBox="1380.982 152.768 1024 1280" enable-background="new 1380.982 152.768 1024 1024" xml:space="preserve"><g><g><path d="M2339.272,757.038c-0.992,9.438-4.083,19.688-12.158,25.458c-8.017,5.729-19.895,6.427-29.388,8.091    c-22.465,3.938-45.296,5.55-68.004,7.392c2.25,2.954,4.5,5.907,6.75,8.861c5.655-25.044-1.127-50.707-18.547-69.528    c-15.544-16.794-39.032-25.188-61.669-23.091c-22.12,2.049-41.591,13.94-54.564,31.765c-14.774,20.299-17.391,48.198-8.1,71.274    c2.25-2.954,4.5-5.907,6.75-8.861c-21.779,1.815-43.563,1.65-65.411,1.79c-24.025,0.153-48.051,0.247-72.077,0.315    c-55.56,0.16-111.12,0.173-166.681,0.133c-42.097-0.029-84.194-0.097-126.292-0.188c2.015,3.511,4.03,7.022,6.044,10.533    c10.23-24.163,8.378-51.624-6.557-73.45c-13.198-19.288-34.654-30.895-57.812-32.544c-23.262-1.657-46.578,8.829-61.586,26.456    c-16.664,19.571-21.885,46.64-14.454,71.162c0.657,2.169,1.503,4.274,2.374,6.364c2.25-2.954,4.5-5.908,6.75-8.861    c-25.016-0.081-50.031-0.17-75.047-0.271c-7.539-0.03-17.215,0.925-24.031-0.56c-11.272-2.455-12.793-12.475-12.488-22.53    c0.431-14.223,0.896-28.51,2.866-42.618c1.923-13.778,4.288-26.997,14.605-36.983c9.691-9.38,22.964-15.304,35.383-20.111    c48.305-18.699,101.438-23.536,152.364-30.583c10.305-1.426,22.29-1.137,30.938-7.331c8.765-6.277,17.692-12.329,26.698-18.254    c32.597-21.446,66.51-41.18,102.013-57.425c18.892-8.645,38.412-16.111,58.55-21.294c22.481-5.786,45.222-6.012,68.321-6.459    c47.552-0.921,95.179,0.116,142.677,2.509c3.426,0.173,6.853,0.354,10.277,0.558c0.912,0.054-2.848-0.53-1.008-0.084    c1.039,0.251,2.074,0.518,3.109,0.788c11.273,2.939,22.39,6.496,33.405,10.275c20.601,7.067,40.816,15.232,60.657,24.205    c12.904,5.836,25.628,12.066,38.198,18.587c6.609,3.429,13.158,6.972,19.669,10.583c3.385,1.877,6.748,3.791,10.104,5.717    c3.506,2.011,7.902,5.858,12.077,5.941c12.149,0.243,24.299,0.486,36.448,0.729c4.509,0.09,9.018,0.18,13.526,0.271    c0.822,0.017,1.641,0.093,2.458,0.189c-2.347-0.275,1.126,0.256,1.712,0.386c1.565,0.349,3.094,0.839,4.601,1.385    c9.483,3.438,15.262,13.128,17.38,23.325c1.713,8.242,0.89,17.144,0.786,25.51c-0.061,4.901-0.184,9.802-0.33,14.701    c-0.2,6.693,1.503,12.1,3.291,18.588C2338.074,725.165,2340.621,741.139,2339.272,757.038c-0.764,9.001,13.242,8.927,14,0    c1.166-13.746-0.626-27.587-3.496-41.027c-0.869-4.068-1.907-8.102-3.044-12.104c-0.64-2.251-1.386-4.47-2.033-6.719    c-0.892-3.093-0.078,0.963-0.186-0.834c-1.063-17.771,2.782-35.723-1.91-53.252c-4.549-17-18.522-28.839-35.759-31.089    c-9.122-1.191-18.688-0.561-27.862-0.745c-7.037-0.141-14.074-0.281-21.111-0.422c-1.288-0.026-2.575-0.051-3.863-0.077    c4.197,0.084-0.562-1.437-1.632-2.061c-1.695-0.989-3.397-1.966-5.1-2.943c-3.893-2.232-7.811-4.418-11.739-6.585    c-24.536-13.534-49.82-25.643-75.639-36.523c-25.707-10.833-52.257-20.869-79.415-27.486c-6.898-1.681-14.863-1.078-21.884-1.402    c-21.821-1.006-43.659-1.674-65.5-2.059c-29.487-0.52-58.991-0.451-88.469,0.495c-21.402,0.686-41.732,3.233-62.307,9.342    c-40.515,12.031-78.772,31.944-115.068,53.302c-22.894,13.472-45.313,27.9-66.854,43.454c-0.578,0.417-1.155,0.837-1.73,1.259    c-0.549,0.403,0.094-0.294,0.594-0.386c-2.177,0.399-4.361,0.758-6.546,1.111c-9.957,1.608-19.962,2.924-29.955,4.28    c-25.426,3.452-50.857,6.932-76.079,11.694c-26.841,5.068-53.634,11.751-78.535,23.197c-12.102,5.563-24.115,12.928-32.628,23.342    c-9.053,11.076-11.387,25.485-13.312,39.274c-1.622,11.616-2.37,23.322-2.818,35.036c-0.403,10.55-1.246,20.786,3.046,30.691    c5.253,12.124,18.613,15.914,30.605,15.967c30.533,0.136,61.066,0.241,91.599,0.34c4.119,0.014,8.535-4.575,6.75-8.861    c-8.541-20.506-6.362-42.88,6.32-61.1c11.157-16.03,30.357-25.091,49.62-25.289c43.049-0.443,73.236,45.541,56.505,85.057    c-1.994,4.711,0.227,10.521,6.044,10.533c110.145,0.239,220.292,0.398,330.437-0.077c33.287-0.144,66.843,0.794,100.023-1.973    c4.059-0.339,8.584-4.307,6.75-8.861c-7.84-19.47-6.159-40.618,5.184-58.285c9.594-14.945,26.405-25.04,43.98-27.031    c41.738-4.73,75.938,34.055,66.716,74.896c-0.932,4.125,2.001,9.246,6.75,8.861c25.013-2.028,50.088-3.979,74.81-8.44    c12.223-2.206,24.246-4.064,34.021-12.35c9.867-8.362,13.426-21.838,14.72-34.15    C2354.215,748.063,2340.206,748.154,2339.272,757.038z"/></g></g><g><g><path d="M1725.535,658.768c49.357,0,98.714,0,148.071,0c16.481,0,32.962,0,49.443,0c2.854,0,6.263-2.11,6.75-5.139    c4.341-27,8.681-54,13.021-81c0.71-4.419-1.825-8.861-6.75-8.861c-11.963,0-23.926,0-35.888,0c-6.906,0-14.052-0.583-20.935,0.157    c-25.123,2.702-49.568,12.721-71.976,23.869c-31.382,15.612-60.121,36.273-86.686,59.024c-6.868,5.882,3.083,15.737,9.899,9.899    c35.174-30.124,75.041-56.915,119.295-71.615c9.353-3.107,18.972-5.688,28.739-7.098c0.543-0.079-1.899,0.234,0.071-0.004    c0.403-0.049,0.808-0.092,1.212-0.133c0.391-0.04,0.782-0.076,1.175-0.099c3.691-0.221,7.464,0,11.16,0    c14.645,0,29.289,0,43.934,0c-2.25-2.954-4.5-5.907-6.75-8.861c-4.341,27-8.681,54-13.021,81c2.25-1.713,4.5-3.426,6.75-5.139    c-49.357,0-98.714,0-148.071,0c-16.481,0-32.962,0-49.443,0C1716.506,644.768,1716.506,658.768,1725.535,658.768z"/></g></g><g><g><path d="M1967.069,571.067c-1.5,26.9-3,53.8-4.5,80.701c-0.212,3.806,3.345,7.01,7,7c47.811-0.133,95.622-0.265,143.433-0.398    c8.954-0.025,16.92-4.753,25.118-8.101c13.6-5.553,27.199-11.106,40.799-16.659c4.428-1.809,7.493-7.874,3.089-11.7    c-25.267-21.947-56.111-39.53-87.82-49.994c-25.453-8.399-52.09-8.578-78.628-9.014c-12.787-0.209-25.71-0.373-38.463,0.808    c-1.631,0.151-3.276,0.329-4.889,0.607c-8.884,1.534-5.105,15.024,3.723,13.5c1.455-0.251-2.076,0.263-0.857,0.11    c1.103-0.139,2.211-0.238,3.318-0.331c4.85-0.406,9.721-0.563,14.584-0.674c23.038-0.527,46.819-0.613,69.709,2.02    c24.059,2.767,47.244,12.868,68.169,24.618c13.575,7.622,27.563,17.051,38.701,26.117c0.859,0.7,1.717,1.405,2.553,2.132    c1.03-3.9,2.06-7.8,3.089-11.7c-10.305,4.208-20.61,8.417-30.916,12.625c-6.906,2.82-13.812,5.64-20.718,8.459    c-2.088,0.853-4.177,1.706-6.265,2.559c-1.652,0.674-3.198,0.615-0.317,0.606c-21.902,0.061-43.805,0.122-65.707,0.183    c-27.234,0.075-54.47,0.151-81.704,0.227c2.333,2.333,4.667,4.667,7,7c1.5-26.9,3-53.8,4.5-80.701    C1981.572,562.043,1967.57,562.091,1967.069,571.067z"/></g></g><g><g><path d="M1668.582,790.098c-0.327,25.053-15.475,47.952-38.993,57.117c-22.329,8.702-47.814,3.216-65.009-13.257    c-18.132-17.37-22.844-44.272-13.883-67.332c7.707-19.831,27.367-34.497,48.284-37.263    C1635.579,724.525,1668.211,753.425,1668.582,790.098c0.091,9.022,14.091,9.031,14,0c-0.233-23.053-10.678-45.03-28.939-59.238    c-18.675-14.53-43-19.318-65.88-13.433c-21.84,5.619-40.411,21.996-49.354,42.575c-10.303,23.711-7.638,51.57,7.044,72.883    c18.188,26.401,51.713,38.015,82.463,29.613c32.301-8.826,54.235-39.374,54.665-72.4    C1682.7,781.066,1668.7,781.078,1668.582,790.098z"/></g></g><g><g><path d="M2224.582,789.098c-0.312,23.977-13.803,44.93-35.24,55.5c-20.591,10.153-46.604,6.585-64.33-7.669    c-19.678-15.824-27.314-42.231-20.102-66.264c6.279-20.919,24.229-36.435,45.201-41.386    C2188.043,720.325,2224.196,751.008,2224.582,789.098c0.092,9.022,14.092,9.031,14,0c-0.233-23.053-10.678-45.03-28.938-59.238    c-18.675-14.53-43-19.318-65.88-13.433c-21.84,5.619-40.411,21.996-49.353,42.575c-10.37,23.864-7.602,51.959,7.342,73.303    c18.666,26.662,53.13,38.107,84.138,28.6c31.317-9.604,52.271-39.431,52.691-71.807    C2238.699,780.066,2224.699,780.078,2224.582,789.098z"/></g></g><g><g><path d="M2083.982,809.768c-101.095,1.15-202.21,0.949-303.31,0.855c-36.93-0.034-73.86-0.096-110.791-0.176    c2.015,3.511,4.03,7.022,6.044,10.533c5.249-12.397,7.59-25.392,6.196-38.843c-2.333,2.333-4.667,4.667-7,7    c109.295,0.11,218.592,0.223,327.887,0.002c30.749-0.063,61.922,1.216,92.583-1.342c-2.333-2.333-4.667-4.667-7-7    c-1.352,12.387,0.346,24.9,5,36.461c2.25-2.954,4.5-5.907,6.75-8.861C2094.888,808.853,2089.435,809.312,2083.982,809.768    c-8.929,0.747-9.002,14.753,0,14c5.453-0.456,10.906-0.915,16.36-1.37c4.059-0.339,8.584-4.307,6.75-8.861    c-4.26-10.578-5.737-21.403-4.5-32.738c0.391-3.581-3.486-7.293-7-7c-32.339,2.697-65.25,1.29-97.682,1.352    c-51.243,0.098-102.486,0.105-153.73,0.097c-56.353-0.01-112.706-0.051-169.059-0.108c-3.518-0.004-7.394,3.2-7,7    c1.122,10.817-0.018,21.698-4.285,31.776c-1.994,4.711,0.227,10.521,6.044,10.533c110.145,0.239,220.292,0.398,330.437-0.077    c27.888-0.12,55.776-0.285,83.663-0.603C2093.003,823.666,2093.014,809.666,2083.982,809.768z"/></g></g><g><g><path d="M2229.722,776.978c39.516-3.206,79.319-6.382,118.411-13.19c-2.954-2.25-5.907-4.5-8.861-6.75    c-0.992,9.438-4.083,19.688-12.158,25.458c-8.017,5.729-19.895,6.427-29.388,8.091c-22.465,3.938-45.296,5.55-68.004,7.392    c2.25,2.954,4.5,5.907,6.75,8.861c2.961-13.112,2.672-26.484-1.061-39.413c-2.87,2.871-5.74,5.741-8.611,8.611    c0.281,0.101,0.562,0.2,0.842,0.301c-1.395-1.072-2.789-2.145-4.184-3.217c0.073,0.13,0.146,0.26,0.22,0.39    c4.42,7.87,16.515,0.814,12.088-7.066c-1.23-2.191-2.964-3.093-5.243-3.907c-5.097-1.82-10.014,3.754-8.611,8.611    c3.035,10.515,3.475,21.277,1.061,31.968c-0.932,4.125,2.001,9.246,6.75,8.861c25.013-2.028,50.088-3.979,74.81-8.44    c12.223-2.206,24.246-4.064,34.021-12.35c9.867-8.362,13.426-21.838,14.72-34.15c0.516-4.911-4.827-7.452-8.861-6.75    c-37.856,6.593-76.422,9.586-114.688,12.69C2220.789,763.703,2220.717,777.708,2229.722,776.978z"/></g></g><g><g><path d="M1544.642,810.108c-28.586-0.093-57.171-0.194-85.757-0.314c-3.636-0.016-7.392,0.214-11.011-0.089    c-3.484-0.292-8.759-2.162-11.394-5.614c-4.786-6.271-3.494-14.939-3.248-22.282c-2.333,2.333-4.667,4.667-7,7    c37.78,0.051,75.56,0.129,113.34,0.17c-2.333-2.333-4.667-4.667-7-7c-1.356,12.578,0.457,25.312,5.32,36.991    c1.466,3.52,4.581,5.997,8.611,4.889c3.33-0.916,6.359-5.082,4.889-8.611c-4.46-10.709-6.064-21.733-4.82-33.269    c0.41-3.805-3.495-6.996-7-7c-37.78-0.041-75.56-0.119-113.34-0.17c-3.912-0.005-6.873,3.191-7,7    c-0.304,9.096-0.476,17.496,3.206,25.993c3.046,7.029,9.7,11.628,16.648,14.183c5.435,1.998,11.155,1.772,16.821,1.797    c29.579,0.127,59.157,0.231,88.735,0.327C1553.671,824.137,1553.669,810.137,1544.642,810.108z"/></g></g><g><g><path d="M1490.482,727.348c0,7.282,1.047,17.489-9.08,17.92c-4.598,0.195-9.247,0-13.847,0c-13.188,0-26.375,0-39.563,0    c2.333,2.333,4.667,4.667,7,7c1.261-12.317,2.456-26.71,9.015-37.467c-2.015,1.155-4.03,2.312-6.044,3.467    c9.193,0,18.386,0,27.578,0C1473.628,718.268,1489.966,715.22,1490.482,727.348c0.383,8.993,14.384,9.03,14,0    c-0.557-13.082-10.571-23.08-23.79-23.08c-7.988,0-15.976,0-23.964,0c-6.255,0-12.511,0-18.766,0    c-8.384,0-11.138,14.59-12.655,20.735c-2.203,8.926-3.38,18.131-4.315,27.265c-0.389,3.803,3.479,7,7,7    c14.834,0,29.668,0,44.501,0c7.47,0,14.57,0.452,21.296-3.611c10.463-6.321,10.692-17.555,10.692-28.309    C1504.482,718.32,1490.482,718.32,1490.482,727.348z"/></g></g><g><g><path d="M2337.662,690.768c-17.56,0-35.12,0-52.68,0c2.25,2.953,4.5,5.907,6.75,8.861c1.66-7.617,4.365-12.831,8.621-19.558    c8.664-13.695,22.28-22.388,38.08-25.504c-2.871-1.63-5.741-3.259-8.611-4.889c2.454,11.811,1.188,24.646,0.883,36.658    c-0.113,4.45-0.488,8.877,0.207,13.293c0.595,3.774,5.249,5.813,8.611,4.889c3.984-1.096,5.481-4.845,4.889-8.611    c0.417,2.651,0.063-0.896,0.087-2.197c0.05-2.75,0.158-5.5,0.229-8.249c0.332-13.086,1.272-26.617-1.405-39.503    c-0.817-3.933-5.063-5.589-8.611-4.889c-27.079,5.34-50.53,27.544-56.479,54.839c-0.961,4.411,2.014,8.861,6.75,8.861    c17.56,0,35.12,0,52.68,0C2346.69,704.768,2346.69,690.768,2337.662,690.768z"/></g></g><g><g><path d="M1863.982,693.768c11.184,0,22.369,0,33.553,0c9.028,0,9.028-14,0-14c-11.184,0-22.369,0-33.553,0    C1854.954,679.768,1854.954,693.768,1863.982,693.768L1863.982,693.768z"/></g></g><g><g><path d="M2059.982,693.768c11.185,0,22.368,0,33.553,0c9.028,0,9.028-14,0-14c-11.185,0-22.368,0-33.553,0    C2050.954,679.768,2050.954,693.768,2059.982,693.768L2059.982,693.768z"/></g></g><g><g><path d="M1637.909,790.437c-0.429,18.531-15.632,31.863-33.903,30.795c-18.225-1.066-30.737-19.825-27.29-37.065    c3.121-15.605,17.604-25.37,33.05-24.535C1625.752,760.495,1637.632,775.054,1637.909,790.437c0.162,9.018,14.163,9.033,14,0    c-0.423-23.516-17.735-41.769-40.779-44.683c-23.009-2.91-44.748,14.979-48.395,37.342c-4.116,25.24,14.287,49.501,39.798,51.992    c26.485,2.586,48.769-18.424,49.375-44.651C1652.118,781.404,1638.117,781.424,1637.909,790.437z"/></g></g><g><g><path d="M2194.909,790.437c-0.429,18.531-15.632,31.863-33.903,30.795c-18.225-1.066-30.737-19.826-27.29-37.065    c3.12-15.605,17.604-25.37,33.05-24.535C2182.752,760.495,2194.632,775.053,2194.909,790.437c0.162,9.018,14.162,9.033,14,0    c-0.423-23.516-17.734-41.769-40.779-44.683c-23.01-2.91-44.748,14.979-48.395,37.342c-4.116,25.239,14.287,49.501,39.798,51.992    c26.485,2.586,48.769-18.424,49.376-44.651C2209.118,781.404,2195.118,781.424,2194.909,790.437z"/></g></g><g><g><path d="M1603.908,790.44c0.001-0.573,0.15-1.107,0.446-1.602c0.729-0.843,0.842-0.999,0.339-0.469    c0.467-0.495,1.031-0.82,1.695-0.976c-0.734,0.188-0.53,0.172,0.611-0.046c1.138,0.218,1.34,0.232,0.606,0.044    c0.661,0.153,1.225,0.476,1.691,0.968c-0.503-0.531-0.39-0.377,0.339,0.462c0.556,0.876,0.453,1.675,0.296,2.641    c0.212-0.716,0.125-0.536-0.263,0.538c-0.731,0.851-0.844,1.014-0.338,0.488c-0.468,0.502-1.037,0.833-1.706,0.992    c0.732-0.186,0.524-0.168-0.626,0.051c-1.149-0.219-1.358-0.236-0.625-0.051c-0.669-0.159-1.237-0.49-1.706-0.992    c0.505,0.525,0.393,0.362-0.338-0.488c-0.124-0.312-0.248-0.623-0.372-0.935C1604.145,791.798,1604.127,791.59,1603.908,790.44    c0.205,3.809,3.029,7,7,7c3.661,0,7.206-3.187,7-7c-0.314-5.839-4.495-10.563-10.483-10.885    c-5.994-0.323-10.995,4.596-11.311,10.459c-0.323,6.005,4.593,10.989,10.452,11.311c2.91,0.159,5.515-0.978,7.714-2.798    c2.439-2.018,3.416-5.036,3.627-8.087c0.264-3.811-3.384-7-7-7C1606.893,783.44,1604.172,786.635,1603.908,790.44z"/></g></g><g><g><path d="M2160.909,790.44c0.002-0.573,0.15-1.107,0.446-1.602c0.729-0.843,0.842-0.999,0.339-0.469    c0.466-0.495,1.031-0.82,1.694-0.976c-0.733,0.188-0.53,0.172,0.611-0.046c1.139,0.218,1.341,0.232,0.606,0.044    c0.661,0.153,1.225,0.476,1.691,0.968c-0.503-0.531-0.391-0.377,0.339,0.462c0.556,0.876,0.453,1.675,0.296,2.641    c0.212-0.716,0.125-0.536-0.262,0.538c-0.731,0.851-0.845,1.014-0.339,0.488c-0.469,0.502-1.037,0.833-1.706,0.992    c0.732-0.186,0.524-0.168-0.626,0.051c-1.149-0.219-1.357-0.236-0.625-0.051c-0.669-0.159-1.237-0.49-1.705-0.992    c0.506,0.525,0.393,0.362-0.339-0.488c-0.123-0.312-0.247-0.623-0.371-0.935C2161.145,791.798,2161.128,791.59,2160.909,790.44    c0.205,3.809,3.029,7,7,7c3.66,0,7.205-3.187,7-7c-0.314-5.839-4.495-10.563-10.483-10.885    c-5.994-0.323-10.994,4.596-11.311,10.459c-0.323,6.005,4.593,10.989,10.452,11.311c2.91,0.159,5.515-0.978,7.714-2.798    c2.439-2.018,3.416-5.036,3.628-8.087c0.264-3.811-3.384-7-7-7C2163.893,783.44,2161.172,786.635,2160.909,790.44z"/></g></g><g display="none"><g display="inline"><path d="M2199.722,811.978c2.746-0.22,5.493-0.432,8.24-0.64c0-4.667,0-9.333,0-14c-2.741,0.293-5.487,0.499-8.24,0.64    c-3.81,0.195-7,3.036-7,7C2192.722,808.646,2195.909,812.173,2199.722,811.978c2.753-0.141,5.499-0.347,8.24-0.64    c3.793-0.405,7-2.878,7-7c0-3.598-3.19-7.289-7-7c-2.747,0.208-5.494,0.42-8.24,0.64c-3.802,0.304-7,2.954-7,7    C2192.722,808.564,2195.914,812.282,2199.722,811.978z"/></g></g><g display="none"><g display="inline"><path d="M2268.411,750.288c-10.172,1.814-20.068,4.496-30.077,7.008c-12.669,3.178-25.616,4.609-38.611,5.683    c2.015,1.155,4.029,2.312,6.044,3.467c-1.23-2.191-2.964-3.093-5.243-3.907c1.629,1.63,3.259,3.26,4.889,4.889    c-7.111-22.623-23.783-40.171-45.796-48.817c-17.466-6.861-37.97-6.31-55.967,1.396c1.13-0.469,0.764-0.313-1.101,0.47    c-1.299,0.585-2.541,1.175-3.819,1.81c-2.304,1.144-4.494,2.505-6.654,3.896c-5.154,3.321-9.858,7.434-14.038,11.904    c-1.566,1.676-3.001,3.479-4.396,5.298c-0.944,1.232-1.935,2.319-2.359,3.864c-1.501,5.458,1.469-2.891-1.224,1.148    c-1.98,2.97-3.627,6.149-5.11,9.39c-8.56,18.698-9.04,40.39-1.355,59.475c2.25-2.954,4.5-5.907,6.75-8.861    c-24.577,2.049-49.245,1.706-73.901,1.856c-27.26,0.167-54.52,0.259-81.779,0.319c-62.188,0.137-124.377,0.087-186.566-0.014    c-19.404-0.032-38.809-0.07-58.214-0.112c2.015,3.511,4.03,7.022,6.044,10.533c9.704-22.919,8.594-48.263-4.18-69.802    c-12.65-21.33-37.4-36.291-62.414-36.291c-23.53,0-45.745,9.54-60.63,28.13c-6.583,8.224-11.327,17.626-14.11,27.789    c-2.048,7.479-2.581,13.031-2.477,21.085c0.12,9.271,2.224,18.544,5.777,27.077c2.25-2.954,4.5-5.908,6.75-8.861    c-25.016-0.081-50.031-0.17-75.047-0.271c-7.539-0.03-17.215,0.925-24.031-0.56c-11.272-2.455-12.793-12.475-12.488-22.53    c0.431-14.223,0.896-28.51,2.866-42.618c1.923-13.778,4.288-26.997,14.605-36.983c9.691-9.38,22.964-15.304,35.383-20.111    c48.305-18.699,101.438-23.536,152.364-30.583c10.305-1.426,22.29-1.137,30.938-7.331c8.765-6.277,17.692-12.329,26.698-18.254    c32.597-21.446,66.51-41.18,102.013-57.425c18.892-8.645,38.412-16.111,58.55-21.294c22.873-5.887,46.156-6.126,69.655-6.669    c49.506-1.144,99.161,0.442,148.399,5.849c24.379,2.678,48.783,6.271,72.673,11.898c2.058,0.485,4.111,0.991,6.154,1.533    c2.945,0.782-1.214-0.967,0.252,0.093c8.229,5.955,16.345,12.076,24.371,18.302c14.162,10.985,28.088,22.311,41.376,34.344    c10.317,9.342,21.989,19.38,28.111,31.427c0.149,0.294,0.853,2.007,0.162,0.285c0.416,1.039,0.661,2.116,0.914,3.202    c0.691,2.976,0.416,6.325,0.42,9.356c0.009,6.471,0.252,12.938,1.052,19.362c0.79,6.337,2.188,12.144,4.785,17.967    c0.713,1.596-0.56-1.729-0.006,0.098c0.325,1.07,0.515,2.182,0.847,3.257c1.381,4.475,2.657,8.96,3.758,13.513    c3.246,13.425,5.026,27.266,3.854,41.073c-0.764,9.001,13.242,8.927,14,0c1.166-13.746-0.626-27.587-3.496-41.027    c-1.5-7.023-3.156-14.517-5.701-21.232c-0.392-1.032-0.853-2.044-1.304-3.053c-0.611-1.37,0.44,1.234-0.416-1.064    c-1.116-2.996-1.755-6.151-2.271-9.298c-1.903-11.621,1.193-24.751-2.937-35.875c-4.816-12.972-16.639-23.578-26.428-32.851    c-13.12-12.429-27.148-23.908-41.333-35.091c-10.079-7.945-20.294-15.725-30.654-23.299c-2.783-2.035-5.166-2.891-8.467-3.716    c-21.589-5.396-43.719-8.731-65.769-11.548c-46.074-5.886-92.612-8.005-139.039-7.822c-26.396,0.104-53.584-0.437-79.7,3.866    c-20.012,3.298-39.443,9.875-58.207,17.431c-38.107,15.346-74.214,35.505-108.894,57.423    c-11.512,7.276-22.868,14.806-34.04,22.595c-2.824,1.969-5.635,3.958-8.424,5.975c-0.532,0.384-1.062,0.77-1.59,1.158    c-0.57,0.419,2.198-0.711-0.216-0.278c-2.222,0.399-4.45,0.76-6.679,1.115c-47.952,7.634-96.644,11.582-143.587,24.63    c-25.725,7.15-56.781,17.033-73.694,39.139c-8.604,11.246-10.676,26.033-12.468,39.718c-1.86,14.205-2.453,28.506-2.884,42.813    c-0.259,8.581,0.405,17.079,5.315,24.409c3.884,5.797,9.93,9.497,16.545,11.394c5.059,1.45,10.221,1.21,15.397,1.232    c29.436,0.126,58.873,0.229,88.309,0.325c4.119,0.014,8.535-4.575,6.75-8.861c-3.986-9.57-5.801-19.503-5.13-29.858    c0.039-0.595,0.062-1.198,0.14-1.79c0.601-4.515-0.594,4.156,0.2-1.83c0.174-1.309,0.444-2.605,0.7-3.898    c0.983-4.979,2.637-9.839,4.854-14.398c9.085-18.681,26.584-30.666,46.827-34.104c21.045-3.573,42.666,6.322,56.059,22.271    c14.246,16.963,17.361,42.046,8.795,62.276c-1.994,4.711,0.227,10.521,6.044,10.533c118.616,0.257,237.242,0.58,355.856-0.402    c14.949-0.124,29.7-0.404,44.604-1.647c4.059-0.339,8.584-4.307,6.75-8.861c-6.276-15.586-6.888-33.151-0.057-48.686    c1.233-2.805,2.702-5.483,4.29-8.1c1.145-1.885,2.864-3.621,3.456-5.772c0.262-2.602,0.35-2.48,0.264,0.362    c0.571-0.766,1.23-1.471,1.856-2.193c6.388-7.382,14.529-13.301,23.583-16.927c15.201-6.089,32.065-5.784,46.523,0.321    c9.438,3.985,17.472,10.294,24.039,18.099c3.414,4.058,6.062,8.799,8.311,13.58c2.354,5.008,2.417,10.021,8.284,12.117    c-1.395-1.072-2.789-2.145-4.184-3.217c0.073,0.13,0.146,0.26,0.22,0.39c1.126,2.005,3.676,3.662,6.044,3.467    c13.934-1.15,27.882-2.68,41.491-5.976c10.312-2.497,20.457-5.349,30.92-7.215C2281.01,762.204,2277.237,748.713,2268.411,750.288    z"/></g></g><g display="none"><g display="inline"><path d="M1725.535,658.768c49.357,0,98.714,0,148.071,0c16.481,0,32.962,0,49.443,0c2.854,0,6.263-2.11,6.75-5.139    c4.341-27,8.681-54,13.021-81c0.71-4.419-1.825-8.861-6.75-8.861c-11.963,0-23.926,0-35.888,0c-6.906,0-14.052-0.583-20.935,0.157    c-25.123,2.702-49.568,12.721-71.976,23.869c-31.382,15.612-60.121,36.273-86.686,59.024c-6.868,5.882,3.083,15.737,9.899,9.899    c35.174-30.124,75.041-56.915,119.295-71.615c9.353-3.107,18.972-5.688,28.739-7.098c0.543-0.079-1.899,0.234,0.071-0.004    c0.403-0.049,0.808-0.092,1.212-0.133c0.391-0.04,0.782-0.076,1.175-0.099c3.691-0.221,7.464,0,11.16,0    c14.645,0,29.289,0,43.934,0c-2.25-2.954-4.5-5.907-6.75-8.861c-4.341,27-8.681,54-13.021,81c2.25-1.713,4.5-3.426,6.75-5.139    c-49.357,0-98.714,0-148.071,0c-16.481,0-32.962,0-49.443,0C1716.506,644.768,1716.506,658.768,1725.535,658.768z"/></g></g><g display="none"><g display="inline"><path d="M1967.069,571.067c-1.5,26.9-3,53.8-4.5,80.701c-0.212,3.805,3.345,7.011,7,7c45.677-0.136,91.354-0.272,137.03-0.408    c2.717-0.008,5.188-1.422,7.65-2.427c7.002-2.859,14.003-5.718,21.005-8.577c11.222-4.582,22.442-9.164,33.664-13.746    c4.557-1.861,7.337-7.761,3.089-11.7c-18.773-17.407-42.623-30.17-66.05-39.925c-41.034-17.086-85.661-19.862-129.654-18.62    c-5.97,0.169-13.335,3.208-9.501,10.909c1.471,2.955,4.447,3.416,7.267,3.794c3.792,0.509,7-3.569,7-7c0-4.2-3.219-6.493-7-7    c3.368,0.452,2.072,0.303,1.331,0.164c-0.126-0.024-0.251-0.052-0.374-0.085c4.079,1.078,5.175,11.352-0.169,13.233    c1.17-0.412-2.006,0.225-1.111,0.126c0.429-0.047,0.861-0.069,1.292-0.091c1.841-0.098,3.687-0.103,5.529-0.112    c22.292-0.116,45.183-0.268,67.253,2.971c38.489,5.647,75.608,21.693,106.586,45.163c0.953,0.722-0.549-0.438,0.903,0.697    c0.542,0.425,1.081,0.855,1.618,1.287c0.963,0.772,1.913,1.559,2.855,2.355c0.786,0.665,1.569,1.335,2.324,2.036    c1.03-3.9,2.06-7.8,3.089-11.7c-10.305,4.208-20.61,8.417-30.916,12.625c-6.906,2.82-13.812,5.64-20.718,8.459    c-2.088,0.853-4.177,1.706-6.265,2.559c-1.66,0.678-3.188,0.615-0.323,0.606c-22.721,0.068-45.441,0.136-68.161,0.203    c-23.082,0.069-46.163,0.137-69.244,0.206c2.333,2.333,4.667,4.667,7,7c1.5-26.9,3-53.8,4.5-80.701    C1981.572,562.043,1967.57,562.091,1967.069,571.067z"/></g></g><g display="none"><g display="inline"><path d="M1668.582,790.098c-0.327,25.053-15.475,47.952-38.993,57.117c-22.329,8.702-47.814,3.216-65.009-13.257    c-18.132-17.37-22.844-44.272-13.883-67.332c7.707-19.831,27.367-34.497,48.284-37.263    C1635.579,724.525,1668.211,753.425,1668.582,790.098c0.091,9.022,14.091,9.031,14,0c-0.233-23.053-10.678-45.03-28.939-59.238    c-18.675-14.53-43-19.318-65.88-13.433c-21.84,5.619-40.411,21.996-49.354,42.575c-10.303,23.711-7.638,51.57,7.044,72.883    c18.188,26.401,51.713,38.015,82.463,29.613c32.301-8.826,54.235-39.374,54.665-72.4    C1682.7,781.066,1668.7,781.078,1668.582,790.098z"/></g></g><g display="none"><g display="inline"><path d="M2194.582,789.098c-0.312,23.977-13.803,44.93-35.24,55.5c-20.591,10.153-46.604,6.585-64.33-7.669    c-18.003-14.478-26.249-38.217-21.564-60.758c0.986-4.746,2.616-9.396,4.729-13.75c1.949-4.016,6.855-8.907,6.855-13.304    c0,3.084-0.112,2.371,1.48,0.48c0.796-0.946,1.643-1.848,2.486-2.751c2.232-2.388,4.713-4.62,7.313-6.597    c4.742-3.603,10.076-6.493,15.63-8.576c18.04-6.764,37.048-4.469,53.248,5.107C2183.572,747.648,2194.326,768.03,2194.582,789.098    c0.109,9.021,14.109,9.032,14,0c-0.308-25.335-12.737-48.205-33.556-62.63c-18.781-13.013-42.155-15.69-63.855-9.29    c-6.247,1.843-9.275,3.293-15.122,6.556c-6.255,3.49-11.942,8.115-16.949,13.214c-1.969,2.005-3.75,4.206-5.458,6.435    c-0.944,1.232-1.935,2.319-2.359,3.864c-1.501,5.458,1.469-2.891-1.224,1.148c-2.571,3.856-4.632,8.061-6.38,12.344    c-8.884,21.757-6.827,46.657,5.027,66.92c16.979,29.021,52.399,42.473,84.552,34.024c32.635-8.575,54.893-39.335,55.324-72.585    C2208.699,780.066,2194.699,780.078,2194.582,789.098z"/></g></g><g display="none"><g display="inline"><path d="M2053.982,809.768c-114.441,1.302-228.905,0.969-343.351,0.762c-13.583-0.024-27.166-0.053-40.749-0.082    c2.015,3.511,4.03,7.022,6.044,10.533c5.249-12.397,7.59-25.392,6.196-38.843c-2.333,2.333-4.667,4.667-7,7    c111.757,0.113,223.518,0.334,335.276-0.089c18.409-0.07,36.844,0.279,55.194-1.251c-2.333-2.333-4.667-4.667-7-7    c-1.352,12.387,0.346,24.9,5,36.461c2.25-2.954,4.5-5.907,6.75-8.861C2064.888,808.853,2059.435,809.312,2053.982,809.768    c-8.929,0.747-9.002,14.753,0,14c5.453-0.456,10.906-0.915,16.36-1.37c4.059-0.339,8.584-4.307,6.75-8.861    c-4.26-10.578-5.737-21.403-4.5-32.738c0.391-3.581-3.486-7.293-7-7c-15.235,1.271-30.455,1.141-45.74,1.211    c-20.278,0.094-40.557,0.138-60.835,0.171c-56.129,0.093-112.257,0.078-168.386,0.05c-38.503-0.02-77.006-0.053-115.509-0.092    c-3.518-0.004-7.394,3.2-7,7c1.122,10.817-0.018,21.698-4.285,31.776c-1.994,4.711,0.227,10.521,6.044,10.533    c118.616,0.257,237.242,0.58,355.856-0.402c9.414-0.078,18.829-0.17,28.244-0.277    C2063.003,823.666,2063.014,809.666,2053.982,809.768z"/></g></g><g display="none"><g display="inline"><path d="M2263.272,757.038c0.006,12.178-2.597,22.866-12.827,29.374c-14.434,9.183-34.201,10.253-50.723,11.566    c2.25,2.954,4.5,5.907,6.75,8.861c2.967-13.142,2.638-26.47-1.061-39.413c-2.87,2.871-5.74,5.741-8.611,8.611    c0.281,0.101,0.562,0.2,0.842,0.301c-1.395-1.072-2.789-2.145-4.184-3.217c0.073,0.13,0.146,0.26,0.22,0.39    c1.126,2.005,3.676,3.662,6.044,3.467c13.934-1.15,27.882-2.68,41.491-5.976c10.312-2.497,20.457-5.349,30.92-7.215    c8.877-1.584,5.104-15.074-3.723-13.5c-10.172,1.814-20.068,4.496-30.077,7.008c-12.669,3.178-25.616,4.609-38.611,5.683    c2.015,1.155,4.029,2.312,6.044,3.467c-1.23-2.191-2.964-3.093-5.243-3.907c-5.107-1.823-9.999,3.755-8.611,8.611    c3.008,10.526,3.482,21.241,1.061,31.968c-0.933,4.131,2.001,9.238,6.75,8.861c19.632-1.561,42.367-3.154,59.273-14.445    c13.82-9.229,18.284-24.577,18.276-40.495C2277.268,748.009,2263.268,748.009,2263.272,757.038z"/></g></g><g display="none"><g display="inline"><path d="M1544.642,810.108c-28.586-0.093-57.171-0.194-85.757-0.314c-3.636-0.016-7.392,0.214-11.011-0.089    c-3.484-0.292-8.759-2.162-11.394-5.614c-4.786-6.271-3.494-14.939-3.248-22.282c-2.333,2.333-4.667,4.667-7,7    c37.78,0.051,75.56,0.129,113.34,0.17c-2.333-2.333-4.667-4.667-7-7c-1.356,12.578,0.457,25.312,5.32,36.991    c1.466,3.52,4.581,5.997,8.611,4.889c3.33-0.916,6.359-5.082,4.889-8.611c-4.46-10.709-6.064-21.733-4.82-33.269    c0.41-3.805-3.495-6.996-7-7c-37.78-0.041-75.56-0.119-113.34-0.17c-3.912-0.005-6.873,3.191-7,7    c-0.304,9.096-0.476,17.496,3.206,25.993c3.046,7.029,9.7,11.628,16.648,14.183c5.435,1.998,11.155,1.772,16.821,1.797    c29.579,0.127,59.157,0.231,88.735,0.327C1553.671,824.137,1553.669,810.137,1544.642,810.108z"/></g></g><g display="none"><g display="inline"><path d="M1490.482,727.348c0,7.282,1.047,17.489-9.08,17.92c-4.598,0.195-9.247,0-13.847,0c-13.188,0-26.375,0-39.563,0    c2.333,2.333,4.667,4.667,7,7c1.261-12.317,2.456-26.71,9.015-37.467c-2.015,1.155-4.03,2.312-6.044,3.467    c9.193,0,18.386,0,27.578,0C1473.628,718.268,1489.966,715.22,1490.482,727.348c0.383,8.993,14.384,9.03,14,0    c-0.557-13.082-10.571-23.08-23.79-23.08c-7.988,0-15.976,0-23.964,0c-6.255,0-12.511,0-18.766,0    c-8.384,0-11.138,14.59-12.655,20.735c-2.203,8.926-3.38,18.131-4.315,27.265c-0.389,3.803,3.479,7,7,7    c14.834,0,29.668,0,44.501,0c7.47,0,14.57,0.452,21.296-3.611c10.463-6.321,10.692-17.555,10.692-28.309    C1504.482,718.32,1490.482,718.32,1490.482,727.348z"/></g></g><g display="none"><g display="inline"><path d="M2261.662,690.768c-17.56,0-35.12,0-52.68,0c2.333,2.333,4.667,4.667,7,7c0.05-0.665,0.316-2.55-0.049,0.117    c0.215-1.57,0.524-3.128,0.871-4.675c1.071-4.782,2.676-9.204,4.648-13.139c7.063-14.088,19.686-22.483,34.98-25.504    c-2.871-1.63-5.741-3.259-8.611-4.889c2.598,12.503,0.826,25.543,3.254,38.174c0.516,2.681,1.269,5.313,2.29,7.846    c0.5,1.241,1.039,2.466,1.582,3.688c-0.021-0.046-0.385-1.515-0.036,0.243c1.756,8.851,15.249,5.094,13.5-3.723    c-0.337-1.697-1.244-3.271-1.935-4.85c0.95,2.173-0.452-1.343-0.656-1.976c-0.522-1.621-0.9-3.285-1.245-4.95    c-2.607-12.588-0.636-25.572-3.254-38.174c-0.817-3.932-5.063-5.59-8.611-4.889c-27.43,5.418-48.617,28.605-50.729,56.7    c-0.286,3.81,3.4,7,7,7c17.56,0,35.12,0,52.68,0C2270.69,704.768,2270.69,690.768,2261.662,690.768z"/></g></g><g display="none"><g display="inline"><path d="M1853.982,693.768c11.184,0,22.369,0,33.553,0c9.028,0,9.028-14,0-14c-11.184,0-22.369,0-33.553,0    C1844.954,679.768,1844.954,693.768,1853.982,693.768L1853.982,693.768z"/></g></g><g display="none"><g display="inline"><path d="M2039.982,693.768c11.185,0,22.368,0,33.553,0c9.028,0,9.028-14,0-14c-11.185,0-22.368,0-33.553,0    C2030.954,679.768,2030.954,693.768,2039.982,693.768L2039.982,693.768z"/></g></g><g display="none"><g display="inline"><path d="M1637.909,790.437c-0.429,18.531-15.632,31.863-33.903,30.795c-18.225-1.066-30.737-19.825-27.29-37.065    c3.121-15.605,17.604-25.37,33.05-24.535C1625.752,760.495,1637.632,775.054,1637.909,790.437c0.162,9.018,14.163,9.033,14,0    c-0.423-23.516-17.735-41.769-40.779-44.683c-23.009-2.91-44.748,14.979-48.395,37.342c-4.116,25.24,14.287,49.501,39.798,51.992    c26.485,2.586,48.769-18.424,49.375-44.651C1652.118,781.404,1638.117,781.424,1637.909,790.437z"/></g></g><g display="none"><g display="inline"><path d="M2164.909,790.437c-0.429,18.531-15.632,31.863-33.903,30.795c-18.225-1.066-30.737-19.826-27.29-37.065    c3.12-15.605,17.604-25.37,33.05-24.535C2152.752,760.495,2164.632,775.053,2164.909,790.437c0.162,9.018,14.162,9.033,14,0    c-0.423-23.516-17.734-41.769-40.779-44.683c-23.01-2.91-44.748,14.979-48.395,37.342c-4.116,25.239,14.287,49.501,39.798,51.992    c26.485,2.586,48.769-18.424,49.376-44.651C2179.118,781.404,2165.118,781.424,2164.909,790.437z"/></g></g><g display="none"><g display="inline"><path d="M1603.908,790.44c0.001-0.573,0.15-1.107,0.446-1.602c0.729-0.843,0.842-0.999,0.339-0.469    c0.467-0.495,1.031-0.82,1.695-0.976c-0.734,0.188-0.53,0.172,0.611-0.046c1.138,0.218,1.34,0.232,0.606,0.044    c0.661,0.153,1.225,0.476,1.691,0.968c-0.503-0.531-0.39-0.377,0.339,0.462c0.556,0.876,0.453,1.675,0.296,2.641    c0.212-0.716,0.125-0.536-0.263,0.538c-0.731,0.851-0.844,1.014-0.338,0.488c-0.468,0.502-1.037,0.833-1.706,0.992    c0.732-0.186,0.524-0.168-0.626,0.051c-1.149-0.219-1.358-0.236-0.625-0.051c-0.669-0.159-1.237-0.49-1.706-0.992    c0.505,0.525,0.393,0.362-0.338-0.488c-0.124-0.312-0.248-0.623-0.372-0.935C1604.145,791.798,1604.127,791.59,1603.908,790.44    c0.205,3.809,3.029,7,7,7c3.661,0,7.206-3.187,7-7c-0.314-5.839-4.495-10.563-10.483-10.885    c-5.994-0.323-10.995,4.596-11.311,10.459c-0.323,6.005,4.593,10.989,10.452,11.311c2.91,0.159,5.515-0.978,7.714-2.798    c2.439-2.018,3.416-5.036,3.627-8.087c0.264-3.811-3.384-7-7-7C1606.893,783.44,1604.172,786.635,1603.908,790.44z"/></g></g><g display="none"><g display="inline"><path d="M2130.909,790.44c0.002-0.573,0.15-1.107,0.446-1.602c0.729-0.843,0.842-0.999,0.339-0.469    c0.466-0.495,1.031-0.82,1.694-0.976c-0.733,0.188-0.53,0.172,0.611-0.046c1.139,0.218,1.341,0.232,0.606,0.044    c0.661,0.153,1.225,0.476,1.691,0.968c-0.503-0.531-0.391-0.377,0.339,0.462c0.556,0.876,0.453,1.675,0.296,2.641    c0.212-0.716,0.125-0.536-0.262,0.538c-0.731,0.851-0.845,1.014-0.339,0.488c-0.469,0.502-1.037,0.833-1.706,0.992    c0.732-0.186,0.524-0.168-0.626,0.051c-1.149-0.219-1.357-0.236-0.625-0.051c-0.669-0.159-1.237-0.49-1.705-0.992    c0.506,0.525,0.393,0.362-0.339-0.488c-0.123-0.312-0.247-0.623-0.371-0.935C2131.145,791.798,2131.128,791.59,2130.909,790.44    c0.205,3.809,3.029,7,7,7c3.66,0,7.205-3.187,7-7c-0.314-5.839-4.495-10.563-10.483-10.885    c-5.994-0.323-10.994,4.596-11.311,10.459c-0.323,6.005,4.593,10.989,10.452,11.311c2.91,0.159,5.515-0.978,7.714-2.798    c2.439-2.018,3.416-5.036,3.628-8.087c0.264-3.811-3.384-7-7-7C2133.893,783.44,2131.172,786.635,2130.909,790.44z"/></g></g><g display="none"><g display="inline"><path d="M2339.272,757.038c-0.695,7.95,0.944,20.252-5.15,26.496c-3.147,3.225-8.647,3.639-12.818,4.458    c-5.181,1.02-10.39,1.89-15.611,2.678c-25.142,3.796-50.647,5.241-75.97,7.309c2.25,2.954,4.5,5.907,6.75,8.861    c5.362-23.749-0.317-48.976-16.58-67.352c-15.957-18.028-40.081-27.776-64.101-25.21c-22.907,2.447-42.985,14.995-55.733,34.117    c-13.375,20.063-15.396,46.685-6.466,68.864c2.25-2.954,4.5-5.907,6.75-8.861c-21.779,1.815-43.563,1.65-65.411,1.79    c-24.025,0.153-48.051,0.247-72.077,0.315c-55.56,0.16-111.12,0.173-166.681,0.133c-42.097-0.029-84.194-0.097-126.292-0.188    c2.015,3.511,4.03,7.022,6.044,10.533c9.903-23.391,8.509-49.526-5.05-71.196c-13.38-21.384-37.216-34.167-62.198-34.913    c-23.027-0.688-45.624,10.312-59.977,28.146c-7.481,9.297-12.771,20.367-15.09,32.089c-1.928,9.744-1.938,21.359,0.54,32.538    c0.862,3.89,2.211,7.653,3.74,11.324c2.25-2.954,4.5-5.908,6.75-8.861c-25.016-0.081-50.031-0.17-75.047-0.271    c-7.539-0.03-17.215,0.925-24.031-0.56c-11.272-2.455-12.793-12.475-12.488-22.53c0.431-14.223,0.896-28.51,2.866-42.618    c1.923-13.778,4.288-26.997,14.605-36.983c9.691-9.38,22.964-15.304,35.383-20.111c48.305-18.699,101.438-23.536,152.364-30.583    c10.305-1.426,22.29-1.137,30.938-7.331c8.765-6.277,17.692-12.329,26.698-18.254c32.597-21.446,66.51-41.18,102.013-57.425    c18.892-8.645,38.412-16.111,58.55-21.294c22.477-5.785,45.236-5.969,68.321-6.64c47.538-1.381,95.124-1.563,142.677-0.91    c10.039,0.138,20.014,0.553,30.038,1.18c36.945,2.309,73.822,5.783,110.654,9.441c7.076,0.703,14.151,1.422,21.226,2.15    c3.774,0.388,7.55,0.782,11.324,1.176c1.948,0.204,3.896,0.41,5.844,0.615c-0.969-0.102-2.087-1.084-1.365-0.624    c2.981,1.9,5.885,3.925,8.766,5.973c14.024,9.966,27.2,21.202,39.144,33.588c10.431,10.818,19.723,22.781,26.348,36.323    c3.147,6.433,5.504,13.557,6.23,20.697c0.962,9.451,0.232,18.98,1.419,28.445c0.908,7.247,3.046,14.084,5.208,21.021    C2337.575,721.417,2340.769,739.389,2339.272,757.038c-0.764,9.001,13.242,8.927,14,0c1.763-20.777-2.646-42.579-9.173-62.287    c-5.528-16.691-2.032-34.224-6.342-51.083c-5.24-20.502-18.816-38.417-32.998-53.638c-12.446-13.358-26.588-25.143-41.322-35.888    c-3.469-2.53-6.993-4.991-10.593-7.331c-2.452-1.594-5.386-1.559-8.229-1.858c-8.091-0.854-16.185-1.689-24.279-2.513    c-24.466-2.488-48.948-4.828-73.451-6.924c-21.983-1.88-44.008-3.72-66.057-4.644c-20.04-0.84-40.173-0.584-60.223-0.603    c-27.678-0.026-55.355,0.251-83.025,0.903c-24.819,0.585-50.108,0.179-74.542,5.111c-41.164,8.309-80.292,27.526-116.796,47.708    c-27.624,15.272-54.424,32.153-80.238,50.318c-2.285,1.608-4.56,3.229-6.817,4.874c-1.593,1.161,1.009-0.175-0.8,0.149    c-4.354,0.782-8.729,1.445-13.104,2.094c-23.411,3.47-46.908,6.308-70.292,9.965c-26.158,4.09-52.281,8.974-77.586,16.875    c-24.509,7.652-55.566,19.05-67.784,43.625c-5.547,11.157-6.865,24.823-8.277,37.049c-1.508,13.061-1.916,26.216-2.313,39.347    c-0.32,10.571,1.909,21.473,10.5,28.468c6.057,4.933,13.817,7.068,21.55,7.096c31.181,0.112,62.377,0.157,93.563,0.258    c4.119,0.014,8.535-4.575,6.75-8.861c-4.415-10.599-6.055-21.576-4.85-32.988c-0.367,3.475,0.343-2.23,0.359-2.319    c0.406-2.386,1.004-4.729,1.644-7.061c1.312-4.778,3.38-9.201,5.801-13.507c9.394-16.706,28.412-29.412,47.786-30.313    c21.3-0.991,40.417,7.054,53.94,23.86c13.49,16.763,16.055,41.418,7.765,60.996c-1.994,4.711,0.227,10.521,6.044,10.533    c110.145,0.239,220.292,0.398,330.437-0.077c33.287-0.144,66.843,0.794,100.023-1.973c4.059-0.339,8.584-4.307,6.75-8.861    c-7.301-18.131-6.664-38.583,3.474-55.535c9.629-16.101,26.464-27.561,45.226-29.724c19.444-2.242,38.37,4.701,51.999,18.688    c14.33,14.706,19.66,36.319,15.182,56.15c-0.931,4.123,2.001,9.249,6.75,8.861c27.808-2.27,55.736-4.022,83.32-8.368    c11.017-1.735,24.624-2.655,32.368-11.695c8.104-9.459,6.847-23.278,7.861-34.877    C2354.059,748.04,2340.052,748.116,2339.272,757.038z"/></g></g><g display="none"><g display="inline"><path d="M1725.535,658.768c49.445,0,98.89,0,148.334,0c15.727,0,31.453,0,47.179,0c2.841,0,6.28-2.11,6.75-5.139    c4.341-28,8.681-56,13.021-84c0.674-4.346-1.798-8.958-6.75-8.861c-18.261,0.357-37.106-0.091-55.25,2.237    c-25.853,3.317-50.826,13.843-73.816,25.658c-30.464,15.655-58.453,35.917-84.418,58.156c-6.868,5.882,3.083,15.738,9.899,9.899    c35.247-30.188,75.098-57.094,119.295-72.219c9.351-3.2,18.965-5.889,28.739-7.433c0.562-0.089,1.125-0.17,1.689-0.248    c-2.79,0.385-1.061,0.143-0.407,0.067c0.391-0.045,0.782-0.087,1.175-0.117c5.549-0.416,11.125-0.607,16.683-0.91    c12.135-0.662,24.259-0.853,36.411-1.09c-2.25-2.954-4.5-5.907-6.75-8.861c-4.341,28-8.681,56-13.021,84    c2.25-1.713,4.5-3.426,6.75-5.139c-49.445,0-98.89,0-148.334,0c-15.727,0-31.453,0-47.179,0    C1716.506,644.768,1716.506,658.768,1725.535,658.768z"/></g></g><g display="none"><g display="inline"><path d="M1961.069,567.067c-1.5,28.233-3,56.467-4.5,84.701c-0.203,3.823,3.338,6.987,7,7c49.831,0.17,99.662,0.34,149.492,0.51    c8.001,0.027,16.001,0.054,24.001,0.082c5.234,0.018,8.821-5.985,6.044-10.533c-12.982-21.264-25.965-42.528-38.947-63.792    c-2.563-4.198-5.126-8.396-7.689-12.594c-0.395-0.647-0.79-1.295-1.186-1.942c2,3.275-0.06-0.346-0.667-1.488    c-1.15-2.164-3.082-4.073-5.096-5.437c-5.43-3.678-12.067-3.283-18.344-3.499c-8.258-0.285-16.518-0.477-24.778-0.618    c-13.795-0.236-27.593-0.268-41.389-0.154c-12.313,0.102-24.636,0.286-36.941,0.766c-8.997,0.351-9.031,14.352,0,14    c13.766-0.536,27.55-0.708,41.324-0.798c14.194-0.092,28.389,0.011,42.58,0.288c7.714,0.151,15.426,0.376,23.136,0.654    c1.869,0.067,5.047-0.377,6.644,0.947c0.855,0.71,0.998,1.605,0.729,0.72c0.855,2.823,3.032,5.483,4.543,7.957    c3.323,5.444,6.647,10.888,9.971,16.333c8.24,13.497,16.48,26.994,24.721,40.49c3.101,5.078,6.201,10.156,9.302,15.234    c2.015-3.511,4.029-7.022,6.044-10.533c-49.831-0.17-99.662-0.34-149.492-0.509c-8.001-0.027-16.001-0.055-24.001-0.082    c2.333,2.333,4.667,4.667,7,7c1.5-28.233,3-56.467,4.5-84.701C1975.548,558.042,1961.546,558.088,1961.069,567.067z"/></g></g><g display="none"><g display="inline"><path d="M1668.582,790.098c-0.327,25.053-15.475,47.952-38.993,57.117c-22.329,8.702-47.814,3.216-65.009-13.257    c-18.132-17.37-22.844-44.272-13.883-67.332c7.707-19.831,27.367-34.497,48.284-37.263    C1635.579,724.525,1668.211,753.425,1668.582,790.098c0.091,9.022,14.091,9.031,14,0c-0.233-23.053-10.678-45.03-28.939-59.238    c-18.675-14.53-43-19.318-65.88-13.433c-21.84,5.619-40.411,21.996-49.354,42.575c-10.303,23.711-7.638,51.57,7.044,72.883    c18.188,26.401,51.713,38.015,82.463,29.613c32.301-8.826,54.235-39.374,54.665-72.4    C1682.7,781.066,1668.7,781.078,1668.582,790.098z"/></g></g><g display="none"><g display="inline"><path d="M2224.582,789.098c-0.312,23.977-13.803,44.93-35.24,55.5c-20.591,10.153-46.604,6.585-64.33-7.669    c-19.678-15.824-27.314-42.231-20.102-66.264c6.279-20.919,24.229-36.435,45.201-41.386    C2188.043,720.325,2224.196,751.008,2224.582,789.098c0.092,9.022,14.092,9.031,14,0c-0.233-23.053-10.678-45.03-28.938-59.238    c-18.675-14.53-43-19.318-65.88-13.433c-21.84,5.619-40.411,21.996-49.353,42.575c-10.37,23.864-7.602,51.959,7.342,73.303    c18.666,26.662,53.13,38.107,84.138,28.6c31.317-9.604,52.271-39.431,52.691-71.807    C2238.699,780.066,2224.699,780.078,2224.582,789.098z"/></g></g><g display="none"><g display="inline"><path d="M2083.982,809.768c-101.095,1.15-202.21,0.949-303.31,0.855c-36.93-0.034-73.86-0.096-110.791-0.176    c2.015,3.511,4.03,7.022,6.044,10.533c5.249-12.397,7.59-25.392,6.196-38.843c-2.333,2.333-4.667,4.667-7,7    c109.295,0.11,218.592,0.223,327.887,0.002c30.749-0.063,61.922,1.216,92.583-1.342c-2.333-2.333-4.667-4.667-7-7    c-1.352,12.387,0.346,24.9,5,36.461c2.25-2.954,4.5-5.907,6.75-8.861C2094.888,808.853,2089.435,809.312,2083.982,809.768    c-8.929,0.747-9.002,14.753,0,14c5.453-0.456,10.906-0.915,16.36-1.37c4.059-0.339,8.584-4.307,6.75-8.861    c-4.26-10.578-5.737-21.403-4.5-32.738c0.391-3.581-3.486-7.293-7-7c-32.339,2.697-65.25,1.29-97.682,1.352    c-51.243,0.098-102.486,0.105-153.73,0.097c-56.353-0.01-112.706-0.051-169.059-0.108c-3.518-0.004-7.394,3.2-7,7    c1.122,10.817-0.018,21.698-4.285,31.776c-1.994,4.711,0.227,10.521,6.044,10.533c110.145,0.239,220.292,0.398,330.437-0.077    c27.888-0.12,55.776-0.285,83.663-0.603C2093.003,823.666,2093.014,809.666,2083.982,809.768z"/></g></g><g display="none"><g display="inline"><path d="M2339.272,757.038c-0.695,7.95,0.944,20.252-5.15,26.496c-3.147,3.225-8.647,3.639-12.818,4.458    c-5.181,1.02-10.39,1.89-15.611,2.678c-25.142,3.796-50.647,5.241-75.97,7.309c2.25,2.954,4.5,5.907,6.75,8.861    c2.956-13.092,2.695-26.516-1.061-39.413c-2.87,2.871-5.74,5.741-8.611,8.611c0.281,0.101,0.562,0.2,0.842,0.301    c-1.395-1.072-2.789-2.145-4.184-3.217c0.073,0.13,0.146,0.26,0.22,0.39c1.127,2.007,3.675,3.659,6.044,3.467    c39.516-3.206,79.319-6.382,118.411-13.19c8.882-1.547,5.104-15.037-3.723-13.5c-37.856,6.593-76.422,9.586-114.688,12.69    c2.015,1.155,4.029,2.312,6.044,3.467c-1.23-2.191-2.964-3.093-5.243-3.907c-5.088-1.816-10.026,3.753-8.611,8.611    c3.056,10.491,3.474,21.284,1.061,31.968c-0.931,4.123,2.001,9.249,6.75,8.861c27.808-2.27,55.736-4.022,83.32-8.368    c11.017-1.735,24.624-2.655,32.368-11.695c8.104-9.459,6.847-23.278,7.861-34.877    C2354.059,748.04,2340.052,748.116,2339.272,757.038z"/></g></g><g display="none"><g display="inline"><path d="M1544.642,810.108c-28.586-0.093-57.171-0.194-85.757-0.314c-3.636-0.016-7.392,0.214-11.011-0.089    c-3.484-0.292-8.759-2.162-11.394-5.614c-4.786-6.271-3.494-14.939-3.248-22.282c-2.333,2.333-4.667,4.667-7,7    c37.78,0.051,75.56,0.129,113.34,0.17c-2.333-2.333-4.667-4.667-7-7c-1.356,12.578,0.457,25.312,5.32,36.991    c1.466,3.52,4.581,5.997,8.611,4.889c3.33-0.916,6.359-5.082,4.889-8.611c-4.46-10.709-6.064-21.733-4.82-33.269    c0.41-3.805-3.495-6.996-7-7c-37.78-0.041-75.56-0.119-113.34-0.17c-3.912-0.005-6.873,3.191-7,7    c-0.304,9.096-0.476,17.496,3.206,25.993c3.046,7.029,9.7,11.628,16.648,14.183c5.435,1.998,11.155,1.772,16.821,1.797    c29.579,0.127,59.157,0.231,88.735,0.327C1553.671,824.137,1553.669,810.137,1544.642,810.108z"/></g></g><g display="none"><g display="inline"><path d="M1490.482,727.348c0,7.282,1.047,17.489-9.08,17.92c-4.598,0.195-9.247,0-13.847,0c-13.188,0-26.375,0-39.563,0    c2.333,2.333,4.667,4.667,7,7c1.261-12.317,2.456-26.71,9.015-37.467c-2.015,1.155-4.03,2.312-6.044,3.467    c9.193,0,18.386,0,27.578,0C1473.628,718.268,1489.966,715.22,1490.482,727.348c0.383,8.993,14.384,9.03,14,0    c-0.557-13.082-10.571-23.08-23.79-23.08c-7.988,0-15.976,0-23.964,0c-6.255,0-12.511,0-18.766,0    c-8.384,0-11.138,14.59-12.655,20.735c-2.203,8.926-3.38,18.131-4.315,27.265c-0.389,3.803,3.479,7,7,7    c14.834,0,29.668,0,44.501,0c7.47,0,14.57,0.452,21.296-3.611c10.463-6.321,10.692-17.555,10.692-28.309    C1504.482,718.32,1490.482,718.32,1490.482,727.348z"/></g></g><g display="none"><g display="inline"><path d="M1861.982,693.768c11.184,0,22.369,0,33.553,0c9.028,0,9.028-14,0-14c-11.184,0-22.369,0-33.553,0    C1852.954,679.768,1852.954,693.768,1861.982,693.768L1861.982,693.768z"/></g></g><g display="none"><g display="inline"><path d="M2049.982,693.768c11.185,0,22.368,0,33.553,0c9.028,0,9.028-14,0-14c-11.185,0-22.368,0-33.553,0    C2040.954,679.768,2040.954,693.768,2049.982,693.768L2049.982,693.768z"/></g></g><g display="none"><g display="inline"><path d="M1637.909,790.437c-0.429,18.531-15.632,31.863-33.903,30.795c-18.225-1.066-30.737-19.825-27.29-37.065    c3.121-15.605,17.604-25.37,33.05-24.535C1625.752,760.495,1637.632,775.054,1637.909,790.437c0.162,9.018,14.163,9.033,14,0    c-0.423-23.516-17.735-41.769-40.779-44.683c-23.009-2.91-44.748,14.979-48.395,37.342c-4.116,25.24,14.287,49.501,39.798,51.992    c26.485,2.586,48.769-18.424,49.375-44.651C1652.118,781.404,1638.117,781.424,1637.909,790.437z"/></g></g><g display="none"><g display="inline"><path d="M2194.909,790.437c-0.429,18.531-15.632,31.863-33.903,30.795c-18.225-1.066-30.737-19.826-27.29-37.065    c3.12-15.605,17.604-25.37,33.05-24.535C2182.752,760.495,2194.632,775.053,2194.909,790.437c0.162,9.018,14.162,9.033,14,0    c-0.423-23.516-17.734-41.769-40.779-44.683c-23.01-2.91-44.748,14.979-48.395,37.342c-4.116,25.239,14.287,49.501,39.798,51.992    c26.485,2.586,48.769-18.424,49.376-44.651C2209.118,781.404,2195.118,781.424,2194.909,790.437z"/></g></g><g display="none"><g display="inline"><path d="M1603.908,790.44c0.001-0.573,0.15-1.107,0.446-1.602c0.729-0.843,0.842-0.999,0.339-0.469    c0.467-0.495,1.031-0.82,1.695-0.976c-0.734,0.188-0.53,0.172,0.611-0.046c1.138,0.218,1.34,0.232,0.606,0.044    c0.661,0.153,1.225,0.476,1.691,0.968c-0.503-0.531-0.39-0.377,0.339,0.462c0.556,0.876,0.453,1.675,0.296,2.641    c0.212-0.716,0.125-0.536-0.263,0.538c-0.731,0.851-0.844,1.014-0.338,0.488c-0.468,0.502-1.037,0.833-1.706,0.992    c0.732-0.186,0.524-0.168-0.626,0.051c-1.149-0.219-1.358-0.236-0.625-0.051c-0.669-0.159-1.237-0.49-1.706-0.992    c0.505,0.525,0.393,0.362-0.338-0.488c-0.124-0.312-0.248-0.623-0.372-0.935C1604.145,791.798,1604.127,791.59,1603.908,790.44    c0.205,3.809,3.029,7,7,7c3.661,0,7.206-3.187,7-7c-0.314-5.839-4.495-10.563-10.483-10.885    c-5.994-0.323-10.995,4.596-11.311,10.459c-0.323,6.005,4.593,10.989,10.452,11.311c2.91,0.159,5.515-0.978,7.714-2.798    c2.439-2.018,3.416-5.036,3.627-8.087c0.264-3.811-3.384-7-7-7C1606.893,783.44,1604.172,786.635,1603.908,790.44z"/></g></g><g display="none"><g display="inline"><path d="M2160.909,790.44c0.002-0.573,0.15-1.107,0.446-1.602c0.729-0.843,0.842-0.999,0.339-0.469    c0.466-0.495,1.031-0.82,1.694-0.976c-0.733,0.188-0.53,0.172,0.611-0.046c1.139,0.218,1.341,0.232,0.606,0.044    c0.661,0.153,1.225,0.476,1.691,0.968c-0.503-0.531-0.391-0.377,0.339,0.462c0.556,0.876,0.453,1.675,0.296,2.641    c0.212-0.716,0.125-0.536-0.262,0.538c-0.731,0.851-0.845,1.014-0.339,0.488c-0.469,0.502-1.037,0.833-1.706,0.992    c0.732-0.186,0.524-0.168-0.626,0.051c-1.149-0.219-1.357-0.236-0.625-0.051c-0.669-0.159-1.237-0.49-1.705-0.992    c0.506,0.525,0.393,0.362-0.339-0.488c-0.123-0.312-0.247-0.623-0.371-0.935C2161.145,791.798,2161.128,791.59,2160.909,790.44    c0.205,3.809,3.029,7,7,7c3.66,0,7.205-3.187,7-7c-0.314-5.839-4.495-10.563-10.483-10.885    c-5.994-0.323-10.994,4.596-11.311,10.459c-0.323,6.005,4.593,10.989,10.452,11.311c2.91,0.159,5.515-0.978,7.714-2.798    c2.439-2.018,3.416-5.036,3.628-8.087c0.264-3.811-3.384-7-7-7C2163.893,783.44,2161.172,786.635,2160.909,790.44z"/></g></g><g display="none"><g display="inline"><path d="M2117.032,580.718c16.096,18.667,32.191,37.334,48.286,56.001c3.963,4.596,7.926,9.192,11.889,13.788    c1.743,2.022,3.538,4.916,5.909,6.305c2.771,1.624,6.882,0.802,9.92,0.663c5.978-0.273,11.956-0.547,17.934-0.82    c24.671-1.129,49.342-2.258,74.013-3.387c4.015-0.184,8.147-3.637,9.075-7.578c1.637-6.951-2.813-12.199-6.554-17.571    c-7.458-10.709-15.431-21.064-23.532-31.292c-4.245-5.358-8.549-10.673-12.95-15.903c-6.155-7.315-14.879-9.656-23.93-10.79    c-26.033-3.26-52.296-4.875-78.483-6.309c-6.973-0.382-13.946-0.732-20.923-1.029c-8.528-0.363-16.168,5.633-12.453,14.832    c1.428,3.535,4.61,5.989,8.611,4.889c3.359-0.924,6.32-5.067,4.889-8.611c-0.152-0.378-0.306-0.756-0.458-1.135    c-0.075,1.929-1.026,3.283-2.854,4.063c1.728-0.671-1.157-0.023,0.448-0.101c0.399-0.019,0.795,0.02,1.193,0.037    c1.374,0.056,2.748,0.118,4.122,0.18c7.299,0.331,14.596,0.711,21.89,1.123c22.563,1.271,45.133,2.818,67.598,5.306    c7.701,0.853,15.215,1.222,20.56,7.575c4.657,5.534,9.194,11.17,13.686,16.839c8.083,10.204,15.898,20.628,23.247,31.374    c0.765,1.118,1.884,2.366,2.383,3.637c-0.357-0.91,0.489-2.276,1.254-2.757c-1.621,1.018,4.748-0.852,2.853-0.765    c-1.227,0.056-2.454,0.112-3.681,0.168c-31.441,1.439-62.882,2.877-94.323,4.316c1.649,0.684,3.3,1.367,4.95,2.05    c-21.556-25-43.111-50-64.667-75C2121.027,563.969,2111.169,573.917,2117.032,580.718z"/></g></g><text x="1380.982" y="1191.768" fill="#000000" font-size="5px" font-weight="bold" font-family="'Helvetica Neue', Helvetica, Arial-Unicode, Arial, Sans-serif">Created by shashank singh</text><text x="1380.982" y="1196.768" fill="#000000" font-size="5px" font-weight="bold" font-family="'Helvetica Neue', Helvetica, Arial-Unicode, Arial, Sans-serif">from the Noun Project</text></svg>